<mxfile host="Electron" modified="2024-03-14T17:24:26.144Z" agent="Mozilla/5.0 (Windows NT 10.0; Win64; x64) AppleWebKit/537.36 (KHTML, like Gecko) draw.io/23.1.5 Chrome/120.0.6099.109 Electron/28.1.0 Safari/537.36" etag="vkP2AA5uG_-EPOlrO7Zc" version="23.1.5" type="device">
  <diagram name="Page-1" id="efa7a0a1-bf9b-a30e-e6df-94a7791c09e9">
    <mxGraphModel dx="2260" dy="836" grid="1" gridSize="10" guides="1" tooltips="1" connect="1" arrows="1" fold="1" page="1" pageScale="1" pageWidth="826" pageHeight="1169" background="none" math="0" shadow="0">
      <root>
        <mxCell id="0" />
        <mxCell id="1" parent="0" />
        <mxCell id="9biIh4JkgRTXicU1ypAx-114" value="&lt;b&gt;User&lt;/b&gt;" style="swimlane;fontStyle=0;childLayout=stackLayout;horizontal=1;startSize=26;fillColor=none;horizontalStack=0;resizeParent=1;resizeParentMax=0;resizeLast=0;collapsible=1;marginBottom=0;html=1;" parent="1" vertex="1">
          <mxGeometry x="-800" y="40" width="270" height="130" as="geometry" />
        </mxCell>
        <mxCell id="q0LR4lM0BGfyVZWYY_4K-2" value="userId INTEGER NOT NULL AUTOINCREMENT" style="text;strokeColor=none;fillColor=none;align=left;verticalAlign=top;spacingLeft=4;spacingRight=4;overflow=hidden;rotatable=0;points=[[0,0.5],[1,0.5]];portConstraint=eastwest;whiteSpace=wrap;html=1;" parent="9biIh4JkgRTXicU1ypAx-114" vertex="1">
          <mxGeometry y="26" width="270" height="26" as="geometry" />
        </mxCell>
        <mxCell id="9biIh4JkgRTXicU1ypAx-115" value="userEmail TEXT NOT NULL UNIQUE" style="text;strokeColor=none;fillColor=none;align=left;verticalAlign=top;spacingLeft=4;spacingRight=4;overflow=hidden;rotatable=0;points=[[0,0.5],[1,0.5]];portConstraint=eastwest;whiteSpace=wrap;html=1;" parent="9biIh4JkgRTXicU1ypAx-114" vertex="1">
          <mxGeometry y="52" width="270" height="26" as="geometry" />
        </mxCell>
        <mxCell id="9biIh4JkgRTXicU1ypAx-116" value="userPasswordHash TEXT NOT NULL" style="text;strokeColor=none;fillColor=none;align=left;verticalAlign=top;spacingLeft=4;spacingRight=4;overflow=hidden;rotatable=0;points=[[0,0.5],[1,0.5]];portConstraint=eastwest;whiteSpace=wrap;html=1;" parent="9biIh4JkgRTXicU1ypAx-114" vertex="1">
          <mxGeometry y="78" width="270" height="26" as="geometry" />
        </mxCell>
        <mxCell id="9biIh4JkgRTXicU1ypAx-117" value="userRecoveringToken TEXT" style="text;strokeColor=none;fillColor=none;align=left;verticalAlign=top;spacingLeft=4;spacingRight=4;overflow=hidden;rotatable=0;points=[[0,0.5],[1,0.5]];portConstraint=eastwest;whiteSpace=wrap;html=1;" parent="9biIh4JkgRTXicU1ypAx-114" vertex="1">
          <mxGeometry y="104" width="270" height="26" as="geometry" />
        </mxCell>
        <mxCell id="Ko53JyzZRT70WihD0OCC-1" value="&lt;b&gt;Role&lt;/b&gt;" style="swimlane;fontStyle=0;childLayout=stackLayout;horizontal=1;startSize=26;fillColor=none;horizontalStack=0;resizeParent=1;resizeParentMax=0;resizeLast=0;collapsible=1;marginBottom=0;html=1;" parent="1" vertex="1">
          <mxGeometry x="-800" y="274" width="270" height="78" as="geometry" />
        </mxCell>
        <mxCell id="Ko53JyzZRT70WihD0OCC-2" value="roleId INTEGER NOT NULL AUTOINCREMENT" style="text;strokeColor=none;fillColor=none;align=left;verticalAlign=top;spacingLeft=4;spacingRight=4;overflow=hidden;rotatable=0;points=[[0,0.5],[1,0.5]];portConstraint=eastwest;whiteSpace=wrap;html=1;" parent="Ko53JyzZRT70WihD0OCC-1" vertex="1">
          <mxGeometry y="26" width="270" height="26" as="geometry" />
        </mxCell>
        <mxCell id="Ko53JyzZRT70WihD0OCC-3" value="roleName TEXT NOT NULL UNIQUE" style="text;strokeColor=none;fillColor=none;align=left;verticalAlign=top;spacingLeft=4;spacingRight=4;overflow=hidden;rotatable=0;points=[[0,0.5],[1,0.5]];portConstraint=eastwest;whiteSpace=wrap;html=1;" parent="Ko53JyzZRT70WihD0OCC-1" vertex="1">
          <mxGeometry y="52" width="270" height="26" as="geometry" />
        </mxCell>
        <mxCell id="Ko53JyzZRT70WihD0OCC-6" value="&lt;b&gt;UserRole&lt;/b&gt;" style="swimlane;fontStyle=0;childLayout=stackLayout;horizontal=1;startSize=26;fillColor=none;horizontalStack=0;resizeParent=1;resizeParentMax=0;resizeLast=0;collapsible=1;marginBottom=0;html=1;" parent="1" vertex="1">
          <mxGeometry x="-440" y="170" width="300" height="104" as="geometry" />
        </mxCell>
        <mxCell id="Ko53JyzZRT70WihD0OCC-7" value="userRoleId INTEGER NOT NULL AUTOINCREMENT" style="text;strokeColor=none;fillColor=none;align=left;verticalAlign=top;spacingLeft=4;spacingRight=4;overflow=hidden;rotatable=0;points=[[0,0.5],[1,0.5]];portConstraint=eastwest;whiteSpace=wrap;html=1;" parent="Ko53JyzZRT70WihD0OCC-6" vertex="1">
          <mxGeometry y="26" width="300" height="26" as="geometry" />
        </mxCell>
        <mxCell id="Ko53JyzZRT70WihD0OCC-8" value="userId INTEGER NOT NULL" style="text;strokeColor=none;fillColor=none;align=left;verticalAlign=top;spacingLeft=4;spacingRight=4;overflow=hidden;rotatable=0;points=[[0,0.5],[1,0.5]];portConstraint=eastwest;whiteSpace=wrap;html=1;" parent="Ko53JyzZRT70WihD0OCC-6" vertex="1">
          <mxGeometry y="52" width="300" height="26" as="geometry" />
        </mxCell>
        <mxCell id="Ko53JyzZRT70WihD0OCC-9" value="roleId INTEGER NOT NULL" style="text;strokeColor=none;fillColor=none;align=left;verticalAlign=top;spacingLeft=4;spacingRight=4;overflow=hidden;rotatable=0;points=[[0,0.5],[1,0.5]];portConstraint=eastwest;whiteSpace=wrap;html=1;" parent="Ko53JyzZRT70WihD0OCC-6" vertex="1">
          <mxGeometry y="78" width="300" height="26" as="geometry" />
        </mxCell>
        <mxCell id="Ko53JyzZRT70WihD0OCC-11" value="" style="endArrow=none;html=1;rounded=0;exitX=1;exitY=0.5;exitDx=0;exitDy=0;entryX=0;entryY=0.5;entryDx=0;entryDy=0;curved=1;" parent="1" source="q0LR4lM0BGfyVZWYY_4K-2" target="Ko53JyzZRT70WihD0OCC-8" edge="1">
          <mxGeometry width="50" height="50" relative="1" as="geometry">
            <mxPoint x="-490" y="200" as="sourcePoint" />
            <mxPoint x="-440" y="150" as="targetPoint" />
            <Array as="points">
              <mxPoint x="-480" y="79" />
              <mxPoint x="-480" y="235" />
            </Array>
          </mxGeometry>
        </mxCell>
        <mxCell id="Ko53JyzZRT70WihD0OCC-15" value="1" style="edgeLabel;html=1;align=center;verticalAlign=middle;resizable=0;points=[];" parent="Ko53JyzZRT70WihD0OCC-11" vertex="1" connectable="0">
          <mxGeometry x="0.8902" y="1" relative="1" as="geometry">
            <mxPoint x="4" y="-12" as="offset" />
          </mxGeometry>
        </mxCell>
        <mxCell id="Ko53JyzZRT70WihD0OCC-16" value="∞" style="edgeLabel;html=1;align=center;verticalAlign=middle;resizable=0;points=[];" parent="Ko53JyzZRT70WihD0OCC-11" vertex="1" connectable="0">
          <mxGeometry x="-0.8591" y="-4" relative="1" as="geometry">
            <mxPoint x="-7" y="-13" as="offset" />
          </mxGeometry>
        </mxCell>
        <mxCell id="Ko53JyzZRT70WihD0OCC-12" value="" style="endArrow=none;html=1;rounded=0;exitX=1;exitY=0.5;exitDx=0;exitDy=0;entryX=0;entryY=0.5;entryDx=0;entryDy=0;curved=1;" parent="1" source="Ko53JyzZRT70WihD0OCC-2" target="Ko53JyzZRT70WihD0OCC-9" edge="1">
          <mxGeometry width="50" height="50" relative="1" as="geometry">
            <mxPoint x="-520" y="89" as="sourcePoint" />
            <mxPoint x="-430" y="245" as="targetPoint" />
            <Array as="points">
              <mxPoint x="-480" y="310" />
              <mxPoint x="-480" y="261" />
            </Array>
          </mxGeometry>
        </mxCell>
        <mxCell id="Ko53JyzZRT70WihD0OCC-14" value="1" style="edgeLabel;html=1;align=center;verticalAlign=middle;resizable=0;points=[];" parent="Ko53JyzZRT70WihD0OCC-12" vertex="1" connectable="0">
          <mxGeometry x="0.8538" relative="1" as="geometry">
            <mxPoint y="-11" as="offset" />
          </mxGeometry>
        </mxCell>
        <mxCell id="Ko53JyzZRT70WihD0OCC-19" value="∞" style="edgeLabel;html=1;align=center;verticalAlign=middle;resizable=0;points=[];" parent="Ko53JyzZRT70WihD0OCC-12" vertex="1" connectable="0">
          <mxGeometry x="-0.7998" y="-2" relative="1" as="geometry">
            <mxPoint x="-4" y="-14" as="offset" />
          </mxGeometry>
        </mxCell>
      </root>
    </mxGraphModel>
  </diagram>
</mxfile>
